<?xml version="1.0" encoding="utf-8"?>
<!-- Generator: Adobe Illustrator 24.1.3, SVG Export Plug-In . SVG Version: 6.00 Build 0)  -->
<svg version="1.1" id="Layer_1" xmlns="http://www.w3.org/2000/svg" xmlns:xlink="http://www.w3.org/1999/xlink" x="0px" y="0px"
	 viewBox="0 0 130.9 65.3" style="enable-background:new 0 0 130.9 65.3;" xml:space="preserve">
<style type="text/css">
	.st0{fill:#00538B;}
	.st1{fill:#A8AD00;}
	.st2{fill:#FEFEFE;}
	.st3{enable-background:new    ;}
</style>
<g>
	<path class="st0" d="M76.4,10c-2.1-0.8,61.2,24.2-13.1,47.2c-0.1,0.2,45.5-8.7,44.1-24.9C107.1,29.7,106.9,20.2,76.4,10z"/>
	<path class="st1" d="M96,21.2c0.5,0.8,21.4,12.4-2.4,24.7C89.6,47.9,112.2,37.1,96,21.2z"/>
	<g>
		<g>
			<path class="st0" d="M120.3,22c0,0-0.9,0.9-1.9,1.3s-2.1,1.3-2.4,3.2c-0.3,1.4,1.9,13.6-14,18.5c0,0,10.5-5,8.7-14.1
				c-0.5-2.2-0.8-4.8-0.8-4.8s-0.5-4.4,3.6-5.4c0.5-0.1,2.5-0.3,4,1.3C117.5,21.9,120,21.7,120.3,22z"/>
			<circle class="st2" cx="114.6" cy="22.9" r="0.4"/>
		</g>
		<g>
			<path class="st1" d="M101.4,45.4c0,0,7.2-2.9,8.9-12.1C110.3,33.2,111.8,40.5,101.4,45.4z"/>
			<path class="st1" d="M106.3,41.6c0,0,2.2-2,1.5-5.5C107.8,36,109.4,38.4,106.3,41.6z"/>
		</g>
		<path class="st1" d="M114.9,21.7c0,0-1.1,0.2-1.5,1.2C113.4,22.8,113.3,21.5,114.9,21.7z"/>
		<path class="st1" d="M117.6,22.2l1.9-0.1c0,0,0.1,0.3-1,0.8s-1,0.5-1,0.5s0.2-0.2,1.1-0.7C119.5,22.2,119.5,22.2,117.6,22.2z"/>
	</g>
</g>
<g>
	<g class="st3">
		<path class="st0" d="M15.5,30.1c0,0.5,0.1,0.9,0.2,1c0.1,0.2,0.4,0.3,0.8,0.3l0.5,0l1.5,0c0.7,0,1.2-0.1,1.5-0.4
			c0.3-0.3,0.7-0.9,1-1.7c0.1-0.2,0.2-0.3,0.3-0.3c0.3,0,0.4,0.1,0.4,0.4c0,0.1,0,0.2,0,0.4c0,0.1,0,0.3,0,0.4c0,0.5,0,1.1,0.1,1.9
			l0.2,2.6c0,0.3,0,0.5,0,0.6c0,0.2-0.1,0.3-0.4,0.3c-0.2,0-0.3-0.1-0.3-0.4c-0.2-1-0.5-1.6-0.9-1.9c-0.4-0.3-1.2-0.5-2.2-0.5
			c-1.4,0-2.2,0.1-2.4,0.3c-0.2,0.2-0.3,0.8-0.3,2l0,1.1v1.6c0,1.4,0.2,2.4,0.7,3c0.3,0.5,1,0.7,2.1,0.8c0.3,0,0.4,0.2,0.4,0.4
			c0,0.3-0.1,0.4-0.3,0.4c-0.2,0-0.4,0-0.8-0.1c-0.3,0-1-0.1-2-0.1h-1.5c-0.7,0-1.3,0-1.8,0.1c-0.7,0.1-1.1,0.1-1.3,0.1
			c-0.3,0-0.5-0.1-0.5-0.4c0-0.2,0.1-0.3,0.4-0.4c0.5-0.2,0.9-0.5,1.1-0.9c0.2-0.4,0.3-1.2,0.3-2.3V26.9c0-1.1-0.2-1.9-0.6-2.2
			c-0.5-0.4-1.1-0.6-2-0.7c-0.2,0-0.4-0.1-0.4-0.3c0-0.3,0.2-0.4,0.5-0.4c0.1,0,0.3,0,0.7,0c0.5,0,1.1,0.1,1.7,0.1l2.4,0l3.6,0
			c1.2,0,2.5-0.1,3.8-0.2c0.5,0,0.8-0.1,1.1-0.1c0.2,0,0.3,0.2,0.4,0.7c0,0.6,0.1,0.9,0.1,1l0.1,1c0,0.2,0,0.4,0,0.5
			c0,0.8-0.2,1.1-0.5,1.1c-0.2,0-0.3-0.1-0.3-0.4v-0.5c0-0.2,0-0.3-0.1-0.5c-0.4-1.2-1.6-1.8-3.6-1.8l-1.8,0l-0.6,0
			c-0.5,0-0.9,0.1-1.1,0.3s-0.3,0.5-0.3,1V30.1z"/>
		<path class="st0" d="M29.4,31v7.7c0,0.9,0.1,1.6,0.4,1.9c0.3,0.4,0.8,0.6,1.6,0.6c0.3,0,0.5,0.1,0.5,0.3c0,0.2-0.4,0.4-1.1,0.4
			c-0.1,0-0.3,0-0.6,0l-1-0.1c-0.6-0.1-0.9-0.1-1.1-0.1c-0.5,0-1.1,0.1-2,0.2c-0.2,0-0.4,0.1-0.5,0.1c-0.2,0-0.3-0.1-0.3-0.3
			c0-0.1,0.1-0.2,0.2-0.3l0.5-0.2c0.2-0.1,0.4-0.3,0.5-0.7c0.1-0.4,0.2-0.8,0.2-1.2l0-0.6v-4.6c0-0.7-0.1-1.2-0.2-1.5
			s-0.4-0.4-0.8-0.4h-0.3c-0.2,0-0.3,0-0.4-0.1c0,0,0-0.1,0-0.2c0-0.2,0.3-0.4,0.8-0.5c1.4-0.3,2.5-0.7,3.3-1.3
			c0.1-0.1,0.2-0.1,0.2-0.1c0.1,0,0.2,0.1,0.2,0.3l0,0.1C29.4,30.5,29.4,30.7,29.4,31z"/>
		<path class="st0" d="M45.3,36.2V39c0,0.6,0,1,0.1,1.2c0.1,0.2,0.2,0.4,0.4,0.6c0.3,0.3,0.7,0.4,1.3,0.5c0.3,0,0.4,0.1,0.4,0.3
			c0,0.3-0.3,0.4-1,0.4c-0.1,0-0.3,0-0.6-0.1L45,41.9c-0.4,0-0.7-0.1-0.9-0.1c-0.9,0-1.6,0.1-2.1,0.2c-0.2,0-0.4,0.1-0.5,0.1
			c-0.2,0-0.3-0.1-0.3-0.3c0-0.1,0.1-0.3,0.3-0.3c0.4-0.1,0.7-0.4,0.8-0.6s0.2-0.8,0.2-1.5V36c0-1.2-0.2-2.2-0.7-2.9
			c-0.5-0.7-1.2-1.1-2-1.1c-0.8,0-1.4,0.2-1.8,0.6c-0.5,0.4-0.7,1-0.7,1.6v4.6c0,0.8,0.2,1.4,0.5,1.8s0.8,0.6,1.6,0.7
			c0.3,0,0.4,0.1,0.4,0.3c0,0.3-0.2,0.4-0.5,0.4c-0.3,0-0.7,0-1.1-0.1c-1-0.1-1.7-0.2-2.1-0.2c-0.5,0-1.1,0-1.8,0.1
			c-0.3,0-0.6,0.1-0.7,0.1c-0.2,0-0.3-0.1-0.3-0.3c0-0.1,0.1-0.2,0.2-0.3c0.5-0.2,0.8-0.4,0.9-0.6c0.1-0.2,0.2-0.6,0.2-1.1l0-0.5
			v-4.8l0-0.5c0-0.7-0.1-1.1-0.2-1.4c-0.1-0.3-0.4-0.4-0.7-0.4h-0.6c-0.1,0-0.2,0-0.2-0.1c0,0-0.1-0.1-0.1-0.2
			c0-0.2,0.1-0.3,0.2-0.4s0.5-0.2,1.2-0.3c1.1-0.3,2.1-0.7,2.9-1.2c0.1-0.1,0.1-0.1,0.2-0.1c0.1,0,0.2,0.1,0.2,0.3l0,0.7l0,0.8
			l0.1,0.5c0,0.1,0.1,0.2,0.2,0.2c0.1,0,0.2-0.1,0.4-0.4c0.8-1,1.9-1.5,3.3-1.5c1.5,0,2.5,0.4,3.2,1.3C45,32.7,45.3,34.1,45.3,36.2z
			"/>
		<path class="st0" d="M54.1,26.3v10.4c0,1.7,0.1,2.9,0.3,3.4c0.3,0.7,0.9,1,1.9,1.1l0.6,0.1c0.2,0,0.4,0.2,0.4,0.4
			c0,0.3-0.2,0.4-0.5,0.4c-0.1,0-0.2,0-0.4,0c-0.3,0-0.6,0-0.9,0l-2.1-0.1l-0.5,0c-0.6,0-1.5,0.1-2.7,0.2c-0.4,0-0.7,0.1-0.9,0.1
			c-0.3,0-0.4-0.1-0.5-0.3c0-0.2,0.1-0.3,0.3-0.4c0.7-0.2,1.2-0.5,1.4-1s0.3-1.4,0.3-2.8V27.2c0-1-0.2-1.8-0.6-2.3
			c-0.4-0.5-1.1-0.8-2-0.9c-0.3,0-0.5-0.2-0.5-0.4c0-0.3,0.2-0.4,0.6-0.4c0.1,0,0.3,0,0.6,0c1,0.1,2.2,0.1,3.5,0.1
			c0.6,0,1.1,0,1.6,0l1.5-0.1c0.5,0,1-0.1,1.4-0.1c2.6,0,4.5,0.5,5.6,1.6c1.1,1,1.6,2.2,1.6,3.6c0,1.5-0.6,2.8-1.7,3.8
			c-1.1,1-2.5,1.6-4.1,1.6c-0.9,0-1.6-0.1-2.3-0.3c-0.7-0.2-1-0.4-1-0.6s0.1-0.4,0.3-0.4c0.1,0,0.1,0,0.2,0c0.5,0.1,1,0.2,1.5,0.2
			c1.1,0,2-0.4,2.7-1.1c0.7-0.7,1.1-1.6,1.1-2.7c0-1.4-0.4-2.5-1.2-3.4c-0.8-0.9-1.9-1.3-3.2-1.3c-1,0-1.7,0.1-2,0.4
			C54.3,24.9,54.1,25.5,54.1,26.3z"/>
		<path class="st0" d="M71.4,35.4c0.1-0.4,0.2-0.8,0.2-1.1c0-0.9-0.2-1.7-0.7-2.2c-0.4-0.6-1-0.9-1.7-0.9c-0.9,0-1.3,0.4-1.3,1.1
			c0,0.1,0,0.3,0,0.4l0,0.3c0,0.6-0.7,0.9-2.1,0.9c-0.4,0-0.5-0.2-0.5-0.5c0-0.1,0-0.2,0.1-0.3c0-0.1,0.1-0.2,0.1-0.4
			c0.1-0.6,0.4-1,0.8-1.3c1-0.7,2.1-1,3.5-1c1.6,0,2.8,0.4,3.5,1.1c0.6,0.6,0.9,1.5,0.9,2.9c0,0.7,0,1.6-0.1,2.6
			c-0.1,1.2-0.1,2-0.1,2.4c0,0.9,0.4,1.4,1.1,1.4c0.3,0,0.5,0,0.6-0.1c0.1-0.1,0.3-0.1,0.3-0.1c0.1,0,0.2,0.1,0.2,0.2
			c0,0.2-0.2,0.4-0.5,0.6l-0.5,0.3L74.7,42c-0.3,0.2-0.7,0.3-1.1,0.3c-0.8,0-1.5-0.5-2-1.6c-1.7,1.1-3.1,1.6-4.2,1.6
			c-0.8,0-1.4-0.2-1.8-0.7c-0.4-0.4-0.7-1.1-0.7-1.9c0-1.4,0.6-2.5,1.9-3.2C67.6,36.3,69.1,35.9,71.4,35.4z M71.1,36.2
			c-0.8-0.1-1.5,0.2-2.2,0.8s-1.1,1.3-1.1,2c0,1.2,0.5,1.8,1.4,1.8c0.6,0,1.1-0.1,1.6-0.4c0.2-0.1,0.4-0.4,0.5-0.8
			c0.1-0.4,0.1-0.9,0.1-1.8l0-1.1v-0.3l-0.1-0.3C71.3,36.3,71.2,36.2,71.1,36.2z"/>
		<path class="st0" d="M81.1,26.2v12.1l0,0.5c0,0.9,0.1,1.5,0.4,1.9c0.3,0.4,0.8,0.6,1.5,0.7c0.2,0,0.4,0.1,0.4,0.1s0.1,0.1,0.1,0.3
			c0,0.2-0.1,0.3-0.3,0.3c-0.1,0-0.3,0-0.5,0c-0.7-0.1-1.6-0.2-2.7-0.2c-1.2,0-2,0-2.5,0.1c-0.1,0-0.3,0-0.3,0
			c-0.2,0-0.3-0.1-0.3-0.3c0-0.1,0.1-0.2,0.3-0.3c0.7-0.3,1-0.9,1-1.8l0-0.8l0-0.4v-11c0-1.2-0.1-2-0.3-2.4
			c-0.2-0.4-0.6-0.6-1.1-0.6c-0.3,0-0.4-0.1-0.4-0.4c0-0.1,0-0.2,0.2-0.3c0.1-0.1,0.4-0.1,0.8-0.2c1.2-0.2,2.1-0.6,2.8-1l0.5-0.3
			c0.1,0,0.2-0.1,0.2-0.1c0.1,0,0.2,0.1,0.2,0.3c0,0.1,0,0.3,0,0.7C81.1,24.3,81.1,25.3,81.1,26.2z"/>
	</g>
</g>
<g>
	<path class="st0" d="M18,19.5c0,0,0.4-0.1,1.3,0c2.3,0.2,8.2,0.8,8.8,5.5c0,0,2.5-3.8,8.7-4.1c0,0-5.5-3.3-8.8-0.2
		C27.9,20.8,24.7,17.3,18,19.5z"/>
	<path class="st1" d="M18,19.5c0,0,8.4-0.8,10,8c0,0,1.2-6.1,8.8-6.6c0,0-5.8-2.1-8.8,2.2C27.9,23.1,26.8,18.3,18,19.5z"/>
</g>
</svg>
